<svg version="1.1" id="Layer_1" xmlns="http://www.w3.org/2000/svg" xmlns:xlink="http://www.w3.org/1999/xlink" x="0px" y="0px"
	 width="100%" viewBox="0 0 336 336" enable-background="new 0 0 336 336" xml:space="preserve">
<path fill="#000000" opacity="1.000000" stroke="none" 
	d="
M151.622406,303.090790 
	C148.542526,287.071991 143.314941,271.770081 142.420319,255.810532 
	C141.643997,241.961243 143.350540,228.212418 150.638306,215.834671 
	C152.813492,212.140320 155.675842,209.747498 160.423660,210.724152 
	C163.331726,211.322372 165.929733,209.748383 168.630905,208.975693 
	C169.895645,208.613907 171.293350,207.985291 172.337860,209.263138 
	C173.291611,210.429947 172.924347,211.857986 172.359161,213.062256 
	C170.309067,217.430283 168.280121,221.815521 166.022446,226.077332 
	C161.163666,235.249146 157.896713,245.020370 154.873611,254.892212 
	C154.582932,255.841446 154.309784,256.831879 154.266464,257.813721 
	C154.172607,259.940765 153.666565,262.603821 156.328796,263.348633 
	C159.081146,264.118622 159.810898,261.478668 160.800980,259.595306 
	C162.860977,255.676636 164.285965,251.397934 167.008621,247.972458 
	C169.650253,248.219742 170.063751,250.247452 170.853821,251.792114 
	C171.946579,253.928574 173.149979,255.871979 175.586929,256.638947 
	C179.181732,257.770294 179.193207,260.065247 177.619934,262.858826 
	C172.969421,271.116608 168.172348,279.295532 163.699112,287.648041 
	C161.273682,292.176849 159.455704,297.027283 157.235947,301.671539 
	C156.112198,304.022705 154.787079,306.495331 151.622406,303.090790 
z"/>
<path fill="#000000" opacity="1.000000" stroke="none" 
	d="
M219.719391,83.379372 
	C216.432281,75.628845 215.230423,67.713028 213.465866,59.960239 
	C212.120209,54.047958 209.173172,48.481358 209.311432,41.890675 
	C213.519989,41.854610 215.793152,44.929363 217.973572,47.185699 
	C223.602982,53.011147 229.313431,58.863800 233.604462,65.820976 
	C237.222733,71.687386 236.618759,73.226105 230.179565,75.217163 
	C227.189453,76.141739 225.420364,77.928398 224.684387,81.006500 
	C224.086685,83.506172 223.679352,86.184853 221.693268,88.119003 
	C219.261765,87.198471 220.403488,85.142006 219.719391,83.379372 
z"/>
<path fill="#000000" opacity="1.000000" stroke="none" 
	d="
M107.002907,165.948486 
	C110.989067,165.593735 112.528885,167.284653 113.789841,170.632217 
	C115.617416,175.484024 116.377480,180.111664 115.105896,185.171799 
	C114.319542,188.301041 112.852791,189.375549 110.351067,187.121979 
	C104.951279,182.257874 98.704315,178.342957 94.081406,172.607727 
	C91.793037,169.768753 92.474747,167.777084 96.207161,167.161392 
	C99.632339,166.596375 103.108452,166.340149 107.002907,165.948486 
z"/>
<path fill="#000000" opacity="1.000000" stroke="none" 
	d="
M132.492950,222.079697 
	C131.948746,223.662811 131.742752,225.031021 129.715759,226.168365 
	C127.345177,220.133545 125.096642,214.222977 124.604706,207.798767 
	C124.448708,205.761612 125.427017,204.008759 127.347984,202.841446 
	C132.449387,199.741501 136.792557,195.712112 141.208771,191.488495 
	C137.553513,201.379822 135.030426,211.539719 132.492950,222.079697 
z"/>
</svg>